<!--?xml version="1.0" standalone="no"?-->
              <svg id="sw-js-blob-svg" viewBox="0 0 100 100" xmlns="http://www.w3.org/2000/svg" version="1.1">
                    <defs> 
                        <linearGradient id="sw-gradient" x1="0" x2="1" y1="1" y2="0">
                            <stop id="stop1" stop-color="rgba(17, 35, 90, 1)" offset="0%"></stop>
                            <stop id="stop2" stop-color="rgba(194.22, 120.946, 0, 1)" offset="100%"></stop>
                        </linearGradient>
                    </defs>
                <path fill="rgba(17, 35, 90, 1)" d="M19.4,-33.2C25.8,-29.9,32.1,-26.1,36.3,-20.4C40.5,-14.8,42.6,-7.4,41.8,-0.5C41,6.5,37.3,13,33.3,18.8C29.2,24.7,24.8,30,19.2,34.9C13.6,39.8,6.8,44.4,0,44.3C-6.8,44.3,-13.5,39.8,-19.5,35C-25.4,30.3,-30.4,25.4,-33.9,19.5C-37.3,13.7,-39.2,6.8,-39.3,-0.1C-39.5,-7,-37.9,-14,-35.1,-21C-32.3,-27.9,-28.2,-34.9,-22.2,-38.4C-16.1,-41.9,-8.1,-41.9,-0.8,-40.5C6.5,-39.1,13,-36.5,19.4,-33.2Z" width="100%" height="100%" transform="translate(50 50)" stroke-width="0" style="transition: all 0.3s ease 0s;"></path>
              </svg>