<!--?xml version="1.0" standalone="no"?-->
              <svg id="sw-js-blob-svg" viewBox="0 0 100 100" xmlns="http://www.w3.org/2000/svg" version="1.1">
                    <defs> 
                        <linearGradient id="sw-gradient" x1="0" x2="1" y1="1" y2="0">
                            <stop id="stop1" stop-color="rgba(54, 84, 134, 1)" offset="0%"></stop>
                            <stop id="stop2" stop-color="rgba(194.22, 120.946, 0, 1)" offset="100%"></stop>
                        </linearGradient>
                    </defs>
                <path fill="rgba(54, 84, 134, 1)" d="M14.9,-25.9C21.4,-22,30.3,-22.3,33.2,-18.7C36.1,-15.1,33.1,-7.5,32.4,-0.4C31.7,6.7,33.4,13.5,31.7,19.3C30.1,25.2,25.2,30.2,19.4,32.3C13.5,34.4,6.8,33.7,0,33.6C-6.8,33.6,-13.5,34.4,-19.7,32.5C-25.9,30.6,-31.5,26,-32.5,20.2C-33.4,14.3,-29.6,7.2,-27.7,1.1C-25.8,-4.9,-25.7,-9.8,-24.9,-15.9C-24.1,-22,-22.6,-29.2,-18.3,-34.5C-14,-39.7,-7,-42.8,-1.4,-40.4C4.2,-37.9,8.3,-29.8,14.9,-25.9Z" width="100%" height="100%" transform="translate(50 50)" stroke-width="0" style="transition: all 0.3s ease 0s;"></path>
              </svg>