<!--?xml version="1.0" standalone="no"?-->
              <svg id="sw-js-blob-svg" viewBox="0 0 100 100" xmlns="http://www.w3.org/2000/svg" version="1.1">
                    <defs> 
                        <linearGradient id="sw-gradient" x1="0" x2="1" y1="1" y2="0">
                            <stop id="stop1" stop-color="rgba(127, 199, 217, 1)" offset="0%"></stop>
                            <stop id="stop2" stop-color="rgba(194.22, 120.946, 0, 1)" offset="100%"></stop>
                        </linearGradient>
                    </defs>
                <path fill="rgba(127, 199, 217, 1)" d="M27.9,-32.2C34.4,-27.8,36.7,-17.3,38.6,-6.8C40.4,3.7,41.7,14.2,37,20.5C32.4,26.7,21.7,28.7,11.9,31.9C2,35.2,-7.1,39.9,-16.2,39C-25.2,38,-34.2,31.5,-39.7,22.6C-45.1,13.8,-47.1,2.6,-45.2,-7.9C-43.2,-18.4,-37.5,-28.1,-29.4,-32.3C-21.2,-36.5,-10.6,-35,0,-35.1C10.7,-35.2,21.4,-36.7,27.9,-32.2Z" width="100%" height="100%" transform="translate(50 50)" stroke-width="0" style="transition: all 0.3s ease 0s;"></path>
              </svg>