<svg width="19" height="19" viewBox="0 0 19 19" fill="none" xmlns="http://www.w3.org/2000/svg">
<path d="M8.7085 13.4583H10.2918V8.70833H8.7085V13.4583ZM9.50016 7.12499C9.72447 7.12499 9.91262 7.04899 10.0646 6.89699C10.2166 6.74499 10.2924 6.55711 10.2918 6.33333C10.2918 6.10902 10.2158 5.92113 10.0638 5.76966C9.91183 5.61819 9.72394 5.54219 9.50016 5.54166C9.27586 5.54166 9.08797 5.61766 8.9365 5.76966C8.78502 5.92166 8.70902 6.10955 8.7085 6.33333C8.7085 6.55763 8.7845 6.74579 8.9365 6.89779C9.0885 7.04979 9.27638 7.12552 9.50016 7.12499ZM9.50016 17.4167C8.40502 17.4167 7.37586 17.2087 6.41266 16.7928C5.44947 16.3769 4.61162 15.813 3.89912 15.101C3.18662 14.3885 2.62269 13.5507 2.20733 12.5875C1.79197 11.6243 1.58402 10.5951 1.5835 9.49999C1.5835 8.40486 1.79144 7.37569 2.20733 6.41249C2.62322 5.4493 3.18715 4.61145 3.89912 3.89895C4.61162 3.18645 5.44947 2.62252 6.41266 2.20716C7.37586 1.7918 8.40502 1.58386 9.50016 1.58333C10.5953 1.58333 11.6245 1.79127 12.5877 2.20716C13.5509 2.62305 14.3887 3.18698 15.1012 3.89895C15.8137 4.61145 16.3779 5.4493 16.7938 6.41249C17.2097 7.37569 17.4174 8.40486 17.4168 9.49999C17.4168 10.5951 17.2089 11.6243 16.793 12.5875C16.3771 13.5507 15.8132 14.3885 15.1012 15.101C14.3887 15.8135 13.5509 16.3777 12.5877 16.7936C11.6245 17.2095 10.5953 17.4172 9.50016 17.4167ZM9.50016 15.8333C11.2682 15.8333 12.7658 15.2198 13.9929 13.9927C15.22 12.7656 15.8335 11.268 15.8335 9.49999C15.8335 7.73194 15.22 6.23437 13.9929 5.00729C12.7658 3.7802 11.2682 3.16666 9.50016 3.16666C7.73211 3.16666 6.23454 3.7802 5.00745 5.00729C3.78037 6.23437 3.16683 7.73194 3.16683 9.49999C3.16683 11.268 3.78037 12.7656 5.00745 13.9927C6.23454 15.2198 7.73211 15.8333 9.50016 15.8333Z" fill="#0F1035"/>
</svg>
